<svg width="1312" height="807" viewBox="0 0 1312 807" fill="none" xmlns="http://www.w3.org/2000/svg">
<path fill-rule="evenodd" clip-rule="evenodd" d="M72 132.329C32.2355 132.329 0 164.565 0 204.329V365.74V419.308V596.758C0 636.523 32.2355 668.758 72 668.758H346.379C384.553 668.758 415.5 699.704 415.5 737.879C415.5 776.053 446.447 807 484.621 807H917.181C955.355 807 986.302 776.053 986.302 737.879C986.302 699.704 1017.25 668.758 1055.42 668.758H1240C1279.76 668.758 1312 636.522 1312 596.758V419.308V365.74V204.329C1312 164.565 1279.76 132.329 1240 132.329H1052.47C1015.92 132.329 986.302 102.706 986.302 66.1647C986.302 29.623 956.679 0 920.137 0H391.575C355.033 0 325.411 29.623 325.411 66.1647C325.411 102.706 295.788 132.329 259.246 132.329H72Z" fill="#73A7F0"/>
</svg>
